<mxfile host="app.diagrams.net" modified="2022-04-05T18:55:37.834Z" agent="5.0 (Windows NT 10.0; Win64; x64) AppleWebKit/537.36 (KHTML, like Gecko) Chrome/100.0.4896.75 Safari/537.36" etag="DIv5IHaSxf1vfW8e6N9d" version="17.4.0" type="github">
  <diagram id="_rykJ0qtDvgBH0_ui9we" name="Page-1">
    <mxGraphModel dx="700" dy="792" grid="1" gridSize="10" guides="1" tooltips="1" connect="1" arrows="1" fold="1" page="1" pageScale="1" pageWidth="850" pageHeight="1100" math="0" shadow="0">
      <root>
        <mxCell id="0" />
        <mxCell id="1" parent="0" />
        <mxCell id="bOL7LG6qz2MXRcRowgWP-1" value="&lt;div style=&quot;box-sizing: border-box ; width: 100% ; background: #e4e4e4 ; padding: 2px&quot;&gt;UserInfo&lt;/div&gt;&lt;table style=&quot;width: 100% ; font-size: 1em&quot; cellpadding=&quot;2&quot; cellspacing=&quot;0&quot;&gt;&lt;tbody&gt;&lt;tr&gt;&lt;td&gt;&lt;br&gt;&lt;br&gt;&lt;/td&gt;&lt;td&gt;username (str)&lt;br&gt;password (str)&lt;br&gt;questionID (int)&lt;br&gt;questionAnswer (str)&lt;br&gt;name (str)&lt;br&gt;email (str)&lt;br&gt;title (str)&lt;br&gt;affiliation (str)&lt;br&gt;street1 (str)&lt;br&gt;street2 (str)&lt;br&gt;city (str)&lt;br&gt;state (str)&lt;br&gt;zip (str)&lt;br&gt;country (str)&lt;br&gt;phone (str)&lt;br&gt;countryCode (str)&lt;br&gt;faxCountryCode (str)&lt;br&gt;extension (str)&lt;br&gt;fax (str)&lt;br&gt;webpage (str)&lt;br&gt;submitterID (str)&lt;br&gt;lastModuleID (str)&lt;br&gt;role (int)&lt;/td&gt;&lt;/tr&gt;&lt;tr&gt;&lt;td&gt;&lt;/td&gt;&lt;td&gt;&lt;br&gt;&lt;/td&gt;&lt;/tr&gt;&lt;/tbody&gt;&lt;/table&gt;" style="verticalAlign=top;align=left;overflow=fill;html=1;" parent="1" vertex="1">
          <mxGeometry x="20" y="30" width="180" height="360" as="geometry" />
        </mxCell>
        <mxCell id="bOL7LG6qz2MXRcRowgWP-2" value="&lt;div style=&quot;box-sizing: border-box ; width: 100% ; background: #e4e4e4 ; padding: 2px&quot;&gt;Modules&lt;/div&gt;&amp;nbsp;title (str)&lt;br&gt;&amp;nbsp;date (str)&lt;br&gt;&amp;nbsp;abst (str)&lt;br&gt;&amp;nbsp;lecture (str)&lt;br&gt;&amp;nbsp;lab (str)&lt;br&gt;&amp;nbsp;exercise (str)&lt;br&gt;&amp;nbsp;homework (str)&lt;br&gt;&amp;nbsp;other (str)&lt;br&gt;&amp;nbsp;authorComments (str)&lt;br&gt;&amp;nbsp;status (int)&lt;br&gt;&amp;nbsp;submitter (str)&lt;br&gt;&amp;nbsp;submitterID (str)&lt;br&gt;&amp;nbsp;version (int)&lt;br&gt;&amp;nbsp;baseID (int)&lt;br&gt;&amp;nbsp;lockedBy (str)&lt;br&gt;&amp;nbsp;cIComments (str)" style="verticalAlign=top;align=left;overflow=fill;html=1;" parent="1" vertex="1">
          <mxGeometry x="20" y="420" width="180" height="260" as="geometry" />
        </mxCell>
        <mxCell id="koHHxYKa03fpA7vrtZTP-4" value="&lt;div style=&quot;box-sizing: border-box ; width: 100% ; background: #e4e4e4 ; padding: 2px&quot;&gt;Authors&lt;/div&gt;&lt;table style=&quot;width: 100% ; font-size: 1em&quot; cellpadding=&quot;2&quot; cellspacing=&quot;0&quot;&gt;&lt;tbody&gt;&lt;tr&gt;&lt;td&gt;&amp;nbsp;name (str)&lt;/td&gt;&lt;td&gt;&lt;br&gt;&lt;/td&gt;&lt;/tr&gt;&lt;tr&gt;&lt;td&gt;&amp;nbsp;email (str)&lt;br&gt;&amp;nbsp;orderID (int)&lt;br&gt;&amp;nbsp;username (str)&lt;/td&gt;&lt;td&gt;&lt;br&gt;&lt;/td&gt;&lt;/tr&gt;&lt;tr&gt;&lt;td&gt;&lt;/td&gt;&lt;td&gt;&lt;br&gt;&lt;/td&gt;&lt;/tr&gt;&lt;/tbody&gt;&lt;/table&gt;" style="verticalAlign=top;align=left;overflow=fill;html=1;" parent="1" vertex="1">
          <mxGeometry x="230" y="30" width="180" height="90" as="geometry" />
        </mxCell>
        <mxCell id="koHHxYKa03fpA7vrtZTP-5" value="&lt;div style=&quot;box-sizing: border-box ; width: 100% ; background: #e4e4e4 ; padding: 2px&quot;&gt;Categories&lt;/div&gt;&lt;table style=&quot;width: 100% ; font-size: 1em&quot; cellpadding=&quot;2&quot; cellspacing=&quot;0&quot;&gt;&lt;tbody&gt;&lt;tr&gt;&lt;td&gt;&amp;nbsp;category (str)&lt;/td&gt;&lt;td&gt;&lt;br&gt;&lt;/td&gt;&lt;/tr&gt;&lt;tr&gt;&lt;td&gt;&amp;nbsp;abbrev (str)&lt;br&gt;&amp;nbsp;text (str)&lt;br&gt;&amp;nbsp;forumID (int)&lt;/td&gt;&lt;td&gt;&lt;br&gt;&lt;/td&gt;&lt;/tr&gt;&lt;tr&gt;&lt;td&gt;&lt;/td&gt;&lt;td&gt;&lt;br&gt;&lt;/td&gt;&lt;/tr&gt;&lt;/tbody&gt;&lt;/table&gt;" style="verticalAlign=top;align=left;overflow=fill;html=1;" parent="1" vertex="1">
          <mxGeometry x="230" y="130" width="180" height="90" as="geometry" />
        </mxCell>
        <mxCell id="koHHxYKa03fpA7vrtZTP-7" value="&lt;div style=&quot;box-sizing: border-box ; width: 100% ; background: #e4e4e4 ; padding: 2px&quot;&gt;Emails&lt;/div&gt;&lt;table style=&quot;width: 100% ; font-size: 1em&quot; cellpadding=&quot;2&quot; cellspacing=&quot;0&quot;&gt;&lt;tbody&gt;&lt;tr&gt;&lt;td&gt;&amp;nbsp;ModuleTitle (str)&lt;/td&gt;&lt;td&gt;&lt;br&gt;&lt;/td&gt;&lt;/tr&gt;&lt;tr&gt;&lt;td&gt;&amp;nbsp;ModuleID (str)&lt;br&gt;&amp;nbsp;Username (str)&lt;br&gt;&amp;nbsp;Name (str)&lt;br&gt;&amp;nbsp;CustomMessage (str)&lt;br&gt;&amp;nbsp;SiteUrl (str)&lt;br&gt;&amp;nbsp;Role (str)&lt;br&gt;&amp;nbsp;Password (str)&lt;br&gt;&amp;nbsp;EmailType (int)&lt;/td&gt;&lt;td&gt;&lt;br&gt;&lt;/td&gt;&lt;/tr&gt;&lt;tr&gt;&lt;td&gt;&lt;/td&gt;&lt;td&gt;&lt;br&gt;&lt;/td&gt;&lt;/tr&gt;&lt;/tbody&gt;&lt;/table&gt;" style="verticalAlign=top;align=left;overflow=fill;html=1;" parent="1" vertex="1">
          <mxGeometry x="230" y="230" width="180" height="160" as="geometry" />
        </mxCell>
        <mxCell id="koHHxYKa03fpA7vrtZTP-8" value="&lt;div style=&quot;box-sizing: border-box ; width: 100% ; background: #e4e4e4 ; padding: 2px&quot;&gt;FacultyRequest&lt;/div&gt;&lt;table style=&quot;width: 100% ; font-size: 1em&quot; cellpadding=&quot;2&quot; cellspacing=&quot;0&quot;&gt;&lt;tbody&gt;&lt;tr&gt;&lt;td&gt;&amp;nbsp;username (str)&lt;/td&gt;&lt;td&gt;&lt;br&gt;&lt;/td&gt;&lt;/tr&gt;&lt;tr&gt;&lt;td&gt;&amp;nbsp;date (str)&lt;br&gt;&amp;nbsp;name (str)&lt;br&gt;&amp;nbsp;aff (str)&lt;br&gt;&amp;nbsp;proof (str)&lt;/td&gt;&lt;td&gt;&lt;br&gt;&lt;/td&gt;&lt;/tr&gt;&lt;tr&gt;&lt;td&gt;&lt;/td&gt;&lt;td&gt;&lt;br&gt;&lt;/td&gt;&lt;/tr&gt;&lt;/tbody&gt;&lt;/table&gt;" style="verticalAlign=top;align=left;overflow=fill;html=1;" parent="1" vertex="1">
          <mxGeometry x="230" y="410" width="180" height="110" as="geometry" />
        </mxCell>
        <mxCell id="koHHxYKa03fpA7vrtZTP-9" value="&lt;div style=&quot;box-sizing: border-box ; width: 100% ; background: #e4e4e4 ; padding: 2px&quot;&gt;MaterialComments&lt;/div&gt;&lt;table style=&quot;width: 100% ; font-size: 1em&quot; cellpadding=&quot;2&quot; cellspacing=&quot;0&quot;&gt;&lt;tbody&gt;&lt;tr&gt;&lt;td&gt;comments (str)&lt;/td&gt;&lt;td&gt;&lt;br&gt;&lt;/td&gt;&lt;/tr&gt;&lt;tr&gt;&lt;td&gt;&amp;nbsp;subject (str)&lt;br&gt;&amp;nbsp;date (str)&lt;br&gt;&amp;nbsp;ratingImage (str)&lt;br&gt;&amp;nbsp;author (str)&lt;br&gt;&amp;nbsp;orderID (int)&lt;br&gt;&amp;nbsp;materialID (int)&lt;br&gt;&amp;nbsp;rating (double)&lt;/td&gt;&lt;td&gt;&lt;br&gt;&lt;/td&gt;&lt;/tr&gt;&lt;tr&gt;&lt;td&gt;&lt;/td&gt;&lt;td&gt;&lt;br&gt;&lt;/td&gt;&lt;/tr&gt;&lt;/tbody&gt;&lt;/table&gt;" style="verticalAlign=top;align=left;overflow=fill;html=1;" parent="1" vertex="1">
          <mxGeometry x="230" y="530" width="180" height="150" as="geometry" />
        </mxCell>
        <mxCell id="JT8bndSHmYSiXzNLLFzh-1" value="&lt;div style=&quot;box-sizing: border-box ; width: 100% ; background: #e4e4e4 ; padding: 2px&quot;&gt;Tablename&lt;/div&gt;&lt;table style=&quot;width: 100% ; font-size: 1em&quot; cellpadding=&quot;2&quot; cellspacing=&quot;0&quot;&gt;&lt;tbody&gt;&lt;tr&gt;&lt;td&gt;identInfo (str)&lt;/td&gt;&lt;td&gt;uniqueId&lt;/td&gt;&lt;/tr&gt;&lt;tr&gt;&lt;td&gt;&amp;nbsp;link (str)&lt;/td&gt;&lt;td&gt;foreignKey&lt;/td&gt;&lt;/tr&gt;&lt;tr&gt;&lt;td&gt;&lt;/td&gt;&lt;td&gt;fieldname&lt;/td&gt;&lt;/tr&gt;&lt;/tbody&gt;&lt;/table&gt;" style="verticalAlign=top;align=left;overflow=fill;html=1;" vertex="1" parent="1">
          <mxGeometry x="425" y="30" width="180" height="90" as="geometry" />
        </mxCell>
      </root>
    </mxGraphModel>
  </diagram>
</mxfile>
